<?xml version="1.0" standalone="no"?>
<!DOCTYPE svg PUBLIC "-//W3C//DTD SVG 20010904//EN"
 "http://www.w3.org/TR/2001/REC-SVG-20010904/DTD/svg10.dtd">
<svg version="1.0" xmlns="http://www.w3.org/2000/svg"
 width="936.000000pt" height="936.000000pt" viewBox="0 0 936.000000 936.000000"
 preserveAspectRatio="xMidYMid meet">
<metadata>
Created by potrace 1.14, written by Peter Selinger 2001-2017
</metadata>
<g transform="translate(0.000000,936.000000) scale(0.100000,-0.100000)"
fill="#000000" stroke="none">
<path d="M900 8583 c-136 -15 -318 -83 -443 -166 -85 -57 -219 -187 -274 -268
-165 -239 -221 -550 -149 -831 18 -69 336 -814 1214 -2843 654 -1512 1230
-2842 1278 -2955 56 -130 110 -237 146 -291 143 -215 359 -366 615 -432 l88
-22 1310 0 1310 0 100 27 c258 71 482 238 616 458 45 74 -29 -95 939 2145 444
1029 995 2304 1224 2834 229 530 428 1002 442 1049 101 348 8 722 -245 985
-156 163 -353 266 -576 302 -78 13 -589 15 -3825 13 -2054 0 -3751 -3 -3770
-5z m1938 -840 l2 -373 308 -2 307 -3 0 -515 c0 -283 -4 -1099 -9 -1812 l-8
-1298 329 0 329 0 12 -227 c39 -737 196 -1033 620 -1167 126 -40 248 -57 447
-63 283 -8 486 28 683 122 116 56 166 90 258 177 194 185 314 457 370 838 14
95 18 227 21 773 l5 657 -219 1 c-120 1 -570 5 -1000 8 l-782 6 271 323 270
322 729 0 729 0 0 495 0 495 -726 0 c-399 0 -724 4 -722 8 2 5 122 124 267
265 l263 257 457 2 456 3 3 543 2 542 313 -2 312 -3 3 -2130 c3 -2216 0 -2429
-38 -2679 -140 -913 -672 -1457 -1608 -1645 -276 -56 -399 -66 -807 -66 -243
0 -406 4 -475 13 -305 38 -528 86 -730 159 -727 262 -1132 784 -1225 1580 -13
109 -15 411 -15 2070 l0 1943 -477 2 -478 3 -3 365 c-1 201 0 371 3 378 3 10
163 12 777 10 l773 -3 3 -372z"/>
</g>
</svg>
